<svg width="624" height="238" viewBox="0 0 624 238" fill="none" xmlns="http://www.w3.org/2000/svg">
<path d="M536.69 20C536.69 43.5016 524.036 64.5 506.097 64.5C524.036 64.5 536.69 85.4984 536.69 109C536.69 85.4984 549.345 64.5 567.284 64.5C549.345 64.5 536.69 43.5016 536.69 20Z" fill="#DE1DBB"/>
<path d="M572.847 64.5C572.847 76.1812 566.45 86.75 557.55 86.75C566.45 86.75 572.847 97.3188 572.847 109C572.847 97.3188 579.244 86.75 588.144 86.75C579.244 86.75 572.847 76.1812 572.847 64.5Z" fill="#E9542F"/>
<path d="M141.288 98.2236C145.981 98.2237 148.328 99.7175 148.328 102.704C148.328 103.728 147.986 105.136 147.304 106.928C140.392 123.056 133.864 136.069 127.72 145.968C124.648 150.832 121.874 154.16 119.399 155.952C116.925 157.744 114.109 158.64 110.952 158.64C107.539 158.64 104.978 157.317 103.271 154.672C101.65 152.027 100.626 147.675 100.199 141.616C100.029 139.398 99.8582 136.069 99.6875 131.632C97.0422 138.971 94.6103 144.603 92.3916 148.528C90.2583 152.368 88.1245 155.013 85.9912 156.464C83.9433 157.914 81.4686 158.64 78.5674 158.64C75.0689 158.64 72.296 157.274 70.248 154.544C68.2854 151.813 67.0481 147.504 66.5361 141.616C65.5121 129.67 65 119.216 65 110.256V105.776C65.0853 102.875 65.8104 100.912 67.1758 99.8877C68.5411 98.7785 70.7602 98.2236 73.832 98.2236C76.0503 98.2237 77.6714 98.736 78.6953 99.7598C79.8046 100.698 80.3594 102.32 80.3594 104.624C80.3594 114.437 80.9567 127.195 82.1514 142.896C84.9674 136.923 87.5706 131.205 89.96 125.744C92.3493 120.283 95.122 113.285 98.2793 104.752C99.2179 102.192 100.327 100.485 101.607 99.6318C102.973 98.6932 104.552 98.2236 106.344 98.2236C108.733 98.2236 110.525 98.7358 111.72 99.7598C112.914 100.698 113.512 102.32 113.512 104.624V124.464C113.512 132.997 113.554 139.142 113.64 142.896C117.565 136.07 120.765 130.138 123.239 125.104C125.799 120.069 128.658 113.285 131.815 104.752C132.754 102.192 133.991 100.485 135.527 99.6318C137.063 98.6932 138.984 98.2236 141.288 98.2236Z" fill="url(#paint0_linear_1_98)"/>
<path fill-rule="evenodd" clip-rule="evenodd" d="M292.324 37.6797C296.42 37.6797 299.621 39.6004 301.925 43.4404C304.314 47.1951 305.509 52.6139 305.509 59.6963C305.509 69.8509 302.692 81.6272 297.061 95.0244C291.429 108.422 283.791 121.691 274.148 134.832C274.746 138.331 275.727 140.848 277.093 142.384C278.458 143.834 280.25 144.56 282.469 144.56C285.967 144.56 289.039 143.579 291.685 141.616C293.604 140.13 295.904 137.901 298.588 134.932C298.758 130.511 299.152 126.381 299.771 122.544C300.624 117.168 302.032 111.493 303.995 105.52C304.848 102.96 306.043 101.125 307.579 100.016C309.115 98.9065 311.547 98.3516 314.875 98.3516C316.752 98.3516 318.032 98.6507 318.715 99.248C319.483 99.8453 319.866 100.741 319.866 101.936C319.866 102.618 319.398 104.923 318.459 108.848C317.606 112.005 316.923 114.864 316.411 117.424C315.728 120.922 315.131 124.293 314.619 127.536C314.107 130.693 313.851 133.296 313.851 135.344C313.851 138.586 314.747 140.208 316.539 140.208C317.819 140.208 319.397 138.928 321.274 136.368C323.237 133.808 325.286 129.925 327.419 124.72C329.638 119.514 331.77 113.114 333.818 105.52C334.501 102.96 335.525 101.125 336.891 100.016C338.341 98.9064 340.475 98.3516 343.291 98.3516C345.254 98.3516 346.619 98.6081 347.387 99.1201C348.155 99.6321 348.539 100.485 348.539 101.68C348.539 103.813 347.43 111.152 345.211 123.696L341.883 144.304C347.627 139.977 353.24 135.975 358.724 132.301C359.118 122.97 360.662 114.042 363.357 105.52C364.125 103.045 365.363 101.253 367.069 100.144C368.861 98.9489 371.337 98.3516 374.494 98.3516C376.201 98.3516 377.396 98.5656 378.078 98.9922C378.76 99.4189 379.102 100.229 379.102 101.424C379.102 102.789 378.462 105.861 377.182 110.64C376.328 114.053 375.646 117.04 375.134 119.6C374.622 122.074 374.195 125.19 373.854 128.944C376.158 122.288 378.889 116.656 382.046 112.048C385.289 107.44 388.573 104.026 391.901 101.808C395.315 99.5036 398.515 98.3516 401.502 98.3516C404.488 98.3516 406.579 99.0351 407.773 100.4C409.053 101.766 409.693 103.856 409.693 106.672C409.693 109.402 408.883 114.352 407.262 121.52C406.579 124.591 406.11 126.896 405.854 128.432C410.12 117.936 414.856 110.298 420.062 105.52C425.267 100.741 430.131 98.3517 434.653 98.3516C440.2 98.3516 442.974 101.125 442.974 106.672C442.974 110 442.035 116.016 440.157 124.72C438.536 132.144 437.726 137.051 437.726 139.44C437.726 142.853 438.963 144.559 441.438 144.56C443.144 144.56 445.15 143.536 447.454 141.488C449.195 139.934 451.341 137.7 453.896 134.787C454.104 124.553 455.674 114.796 458.607 105.52C459.375 103.045 460.613 101.253 462.319 100.144C464.111 98.9489 466.587 98.3516 469.744 98.3516C471.451 98.3516 472.646 98.5656 473.328 98.9922C474.01 99.4189 474.352 100.229 474.352 101.424C474.352 102.789 473.712 105.861 472.432 110.64C471.578 114.053 470.896 117.04 470.384 119.6C469.872 122.16 469.445 125.318 469.104 129.072C471.919 121.734 475.077 115.76 478.575 111.152C482.074 106.544 485.487 103.259 488.815 101.296C492.143 99.3333 495.173 98.3516 497.903 98.3516C500.223 98.3516 502.019 98.9895 503.289 100.265L503.783 100.792C504.983 102.152 505.584 104.112 505.584 106.672C505.584 108.293 505.114 111.365 504.176 115.888H505.328C507.205 115.888 508.784 116.571 510.063 117.936C511.429 119.216 512.111 120.837 512.111 122.8C512.111 123.909 511.856 125.104 511.344 126.384C509.978 129.541 508.059 132.187 505.584 134.32C503.109 136.454 500.378 137.52 497.392 137.52C495.002 137.52 492.955 136.666 491.248 134.96C489.627 133.253 488.815 130.949 488.815 128.048C488.815 126.427 488.901 124.677 489.071 122.8C489.242 121.435 489.328 120.496 489.328 119.984C489.328 119.302 489.157 118.79 488.815 118.448C488.559 118.107 488.219 117.936 487.792 117.936C486.597 117.936 484.976 119.387 482.928 122.288C480.88 125.104 478.831 128.858 476.783 133.552C474.735 138.245 473.072 143.195 471.792 148.4C470.853 152.496 469.786 155.226 468.592 156.592C467.397 157.957 465.435 158.64 462.704 158.64C459.461 158.64 457.157 156.933 455.792 153.52C455.434 152.566 455.13 151.452 454.872 150.179C453.177 151.692 451.431 153.063 449.63 154.288C445.449 157.189 440.67 158.64 435.294 158.64C430.942 158.64 427.656 157.402 425.438 154.928C423.219 152.368 422.109 148.698 422.109 143.92C422.109 141.531 422.707 137.264 423.901 131.12C425.011 125.744 425.565 122.032 425.565 119.984C425.565 118.619 425.096 117.936 424.157 117.936C423.048 117.936 421.47 119.387 419.422 122.288C417.374 125.104 415.325 128.858 413.277 133.552C411.229 138.245 409.566 143.195 408.286 148.4C407.348 152.496 406.238 155.226 404.958 156.592C403.763 157.957 401.8 158.64 399.069 158.64C396.254 158.64 394.121 157.317 392.67 154.672C391.305 151.941 390.622 148.656 390.622 144.816C390.622 141.574 391.048 136.88 391.901 130.736C392.584 125.275 392.926 121.691 392.926 119.984C392.926 118.619 392.456 117.936 391.518 117.936C390.238 117.936 388.616 119.472 386.653 122.544C384.691 125.616 382.771 129.542 380.894 134.32C379.102 139.099 377.651 143.792 376.542 148.4C375.603 152.411 374.494 155.141 373.214 156.592C372.019 157.957 370.099 158.64 367.454 158.64C364.211 158.64 361.907 156.933 360.542 153.52C359.849 151.67 359.344 149.22 359.026 146.169L339.322 159.408C336.08 177.072 331.813 190.939 326.522 201.008C321.317 211.162 314.661 216.24 306.555 216.24C302.203 216.24 298.661 214.874 295.931 212.144C293.2 209.498 291.835 206 291.835 201.648C291.835 197.638 292.731 193.542 294.522 189.36C296.4 185.179 299.813 180.358 304.763 174.896C309.797 169.52 316.88 163.333 326.011 156.336L326.395 153.392C326.992 150.234 327.674 145.712 328.442 139.824C326.736 145.968 324.346 150.662 321.274 153.904C318.203 157.061 314.96 158.64 311.547 158.64C307.707 158.64 304.549 156.89 302.074 153.392C301.322 152.264 300.689 151.052 300.174 149.755C298.312 151.438 296.38 152.95 294.373 154.288C290.106 157.189 285.242 158.64 279.78 158.64C272.271 158.64 266.682 155.227 263.013 148.4C262.135 146.729 261.366 144.936 260.703 143.023C255.658 146.363 247.7 151.781 236.831 159.28C233.503 176.944 229.193 190.853 223.902 201.008C218.612 211.162 211.913 216.24 203.807 216.24C199.455 216.24 195.913 214.874 193.183 212.144C190.452 209.498 189.087 206 189.087 201.648C189.087 197.638 189.983 193.584 191.774 189.488C193.566 185.392 196.895 180.656 201.759 175.28C206.708 169.904 213.663 163.76 222.623 156.848L223.007 154.416C216.266 157.232 209.652 158.64 203.167 158.64C193.61 158.64 185.204 156.805 177.95 153.136C170.697 149.381 165.065 144.09 161.055 137.264C157.044 130.437 155.039 122.501 155.039 113.456C155.039 100.827 157.428 89.6905 162.207 80.0479C166.986 70.32 173.556 62.8101 181.919 57.5195C190.367 52.1437 199.797 49.4561 210.207 49.4561C220.191 49.4561 227.657 51.8029 232.606 56.4961C237.641 61.104 240.158 67.2479 240.158 74.9277C240.158 79.9623 239.22 84.0159 237.343 87.0879C235.551 90.0744 232.948 91.5682 229.535 91.5684C227.231 91.5684 225.353 91.0136 223.902 89.9043C222.537 88.795 221.854 87.2585 221.854 85.2959C221.855 84.4426 222.025 82.992 222.366 80.9443C222.878 78.555 223.135 76.6769 223.135 75.3115C223.135 71.7278 222.025 68.9548 219.807 66.9922C217.673 65.0295 214.047 64.0479 208.927 64.0479C202.697 64.0479 196.895 65.8398 191.519 69.4238C186.228 73.0078 181.961 78.3839 178.719 85.5518C175.476 92.6344 173.854 101.168 173.854 111.152C173.855 121.392 176.628 129.328 182.175 134.96C187.807 140.507 195.914 143.28 206.495 143.28C212.383 143.28 218.527 141.957 224.927 139.312L226.719 123.696H213.663C211.274 123.696 209.438 123.142 208.158 122.032C206.878 120.838 206.238 118.917 206.238 116.272C206.238 113.883 206.878 112.005 208.158 110.64C209.438 109.274 211.145 108.592 213.278 108.592H237.215C239.092 108.592 240.628 109.232 241.822 110.512C243.102 111.706 243.614 113.456 243.358 115.76C243.102 118.49 242.249 124.678 240.799 134.32L239.391 144.048C246.217 138.928 252.447 134.491 258.079 130.736C257.784 127.958 257.637 125.013 257.637 121.904C257.637 111.494 258.959 99.6322 261.604 86.3203C264.335 73.0083 268.303 61.573 273.509 52.0156C278.799 42.4587 285.071 37.6799 292.324 37.6797ZM219.935 171.952C213.449 177.499 208.756 182.49 205.854 186.928C203.038 191.45 201.631 195.419 201.631 198.832C201.631 202.16 202.826 203.824 205.215 203.824C207.433 203.824 209.866 201.307 212.511 196.272C215.156 191.238 217.631 183.131 219.935 171.952ZM323.066 171.696C316.496 177.243 311.717 182.277 308.73 186.8C305.829 191.408 304.379 195.419 304.379 198.832C304.379 200.283 304.635 201.477 305.146 202.416C305.744 203.355 306.683 203.824 307.963 203.824C310.096 203.824 312.486 201.349 315.131 196.4C317.776 191.451 320.421 183.216 323.066 171.696ZM289.509 50.3516C287.546 50.3516 285.327 53.8931 282.853 60.9756C280.378 68.0582 278.202 76.8478 276.324 87.3438C274.447 97.8397 273.424 107.909 273.253 117.552C279.312 107.568 284.133 97.5835 287.717 87.5996C291.301 77.5305 293.093 68.3573 293.093 60.0801C293.093 53.5948 291.898 50.3517 289.509 50.3516Z" fill="url(#paint1_linear_1_98)"/>
<defs>
<linearGradient id="paint0_linear_1_98" x1="793.868" y1="35.5144" x2="48.7327" y2="546.56" gradientUnits="userSpaceOnUse">
<stop offset="0.0176748" stop-color="#FF6011"/>
<stop offset="0.675994" stop-color="#E73037"/>
<stop offset="1" stop-color="#D40856"/>
</linearGradient>
<linearGradient id="paint1_linear_1_98" x1="79.0967" y1="116.426" x2="662.097" y2="116.426" gradientUnits="userSpaceOnUse">
<stop offset="0.0709268" stop-color="#B12224"/>
<stop offset="0.205474" stop-color="#EB094D"/>
<stop offset="0.259615" stop-color="#DE1D50"/>
<stop offset="0.485577" stop-color="#FF0099"/>
<stop offset="1" stop-color="#E2700C"/>
</linearGradient>
</defs>
</svg>
