<svg width="347" height="275" viewBox="0 0 347 275" fill="none" xmlns="http://www.w3.org/2000/svg">
<g clip-path="url(#clip0_1_8)">
<path d="M289.593 8C289.593 31.5016 276.939 52.5 259 52.5C276.939 52.5 289.593 73.4984 289.593 97C289.593 73.4984 302.248 52.5 320.187 52.5C302.248 52.5 289.593 31.5016 289.593 8Z" fill="#DE1DBB"/>
<path d="M103.288 135.224C107.981 135.224 110.328 136.718 110.328 139.704C110.328 140.728 109.986 142.136 109.304 143.928C102.392 160.056 95.864 173.069 89.72 182.968C86.648 187.832 83.874 191.16 81.399 192.952C78.925 194.744 76.109 195.64 72.952 195.64C69.539 195.64 66.978 194.317 65.271 191.672C63.65 189.027 62.626 184.675 62.199 178.616C62.029 176.398 61.8582 173.069 61.6875 168.632C59.0422 175.971 56.6103 181.603 54.3916 185.528C52.2583 189.368 50.1245 192.013 47.9912 193.464C45.9433 194.914 43.4686 195.64 40.5674 195.64C37.0689 195.64 34.296 194.274 32.248 191.544C30.2854 188.813 29.0481 184.504 28.5361 178.616C27.5121 166.67 27 156.216 27 147.256V142.776C27.0853 139.875 27.8104 137.912 29.1758 136.888C30.5411 135.779 32.7602 135.224 35.832 135.224C38.0503 135.224 39.6714 135.736 40.6953 136.76C41.8046 137.698 42.3594 139.32 42.3594 141.624C42.3594 151.437 42.9567 164.195 44.1514 179.896C46.9674 173.923 49.5706 168.205 51.96 162.744C54.3493 157.283 57.122 150.285 60.2793 141.752C61.2179 139.192 62.327 137.485 63.607 136.632C64.973 135.693 66.552 135.224 68.344 135.224C70.733 135.224 72.525 135.736 73.72 136.76C74.914 137.698 75.512 139.32 75.512 141.624V161.464C75.512 169.997 75.554 176.142 75.64 179.896C79.565 173.07 82.765 167.138 85.239 162.104C87.799 157.069 90.658 150.285 93.815 141.752C94.754 139.192 95.991 137.485 97.527 136.632C99.063 135.693 100.984 135.224 103.288 135.224Z" fill="url(#paint0_linear_1_8)"/>
<path d="M223.176 166.712C224.285 166.712 225.139 167.267 225.736 168.376C226.419 169.4 226.76 170.723 226.76 172.344C226.76 174.307 226.461 175.843 225.864 176.952C225.267 178.061 224.328 179.043 223.048 179.896C218.013 183.224 209.992 188.685 198.984 196.28C195.656 213.944 191.347 227.853 186.056 238.008C180.765 248.163 174.067 253.24 165.96 253.24C161.608 253.24 158.067 251.875 155.336 249.144C152.605 246.499 151.24 243 151.24 238.648C151.24 234.637 152.136 230.584 153.928 226.488C155.72 222.392 159.048 217.656 163.912 212.28C168.861 206.904 175.816 200.76 184.776 193.848L185.16 191.416C178.419 194.232 171.805 195.64 165.32 195.64C155.763 195.64 147.357 193.805 140.104 190.136C132.851 186.381 127.219 181.091 123.208 174.264C119.197 167.437 117.192 159.501 117.192 150.456C117.192 137.827 119.581 126.691 124.36 117.048C129.139 107.32 135.709 99.8107 144.072 94.52C152.52 89.144 161.949 86.456 172.36 86.456C182.344 86.456 189.811 88.8027 194.76 93.496C199.795 98.104 202.312 104.248 202.312 111.928C202.312 116.963 201.373 121.016 199.496 124.088C197.704 127.075 195.101 128.568 191.688 128.568C189.384 128.568 187.507 128.013 186.056 126.904C184.691 125.795 184.008 124.259 184.008 122.296C184.008 121.443 184.179 119.992 184.52 117.944C185.032 115.555 185.288 113.677 185.288 112.312C185.288 108.728 184.179 105.955 181.96 103.992C179.827 102.029 176.2 101.048 171.08 101.048C164.851 101.048 159.048 102.84 153.672 106.424C148.381 110.008 144.115 115.384 140.872 122.552C137.629 129.635 136.008 138.168 136.008 148.152C136.008 158.392 138.781 166.328 144.328 171.96C149.96 177.507 158.067 180.28 168.648 180.28C174.536 180.28 180.68 178.957 187.08 176.312L188.872 160.696H175.816C173.427 160.696 171.592 160.141 170.312 159.032C169.032 157.837 168.392 155.917 168.392 153.272C168.392 150.883 169.032 149.005 170.312 147.64C171.592 146.275 173.299 145.592 175.432 145.592H199.368C201.245 145.592 202.781 146.232 203.976 147.512C205.256 148.707 205.768 150.456 205.512 152.76C205.256 155.491 204.403 161.677 202.952 171.32L201.544 181.048C208.371 175.928 214.6 171.491 220.232 167.736C221.341 167.053 222.323 166.712 223.176 166.712ZM167.368 240.824C169.587 240.824 172.019 238.307 174.664 233.272C177.309 228.237 179.784 220.131 182.088 208.952C175.603 214.499 170.909 219.491 168.008 223.928C165.192 228.451 163.784 232.419 163.784 235.832C163.784 239.16 164.979 240.824 167.368 240.824ZM255.886 176.952C256.825 176.099 257.763 175.672 258.702 175.672C259.726 175.672 260.537 176.269 261.134 177.464C261.817 178.573 262.158 179.939 262.158 181.56C262.158 185.144 260.878 188.003 258.318 190.136C253.881 193.805 248.846 195.64 243.214 195.64C235.107 195.64 229.177 192.269 225.422 185.528C221.667 178.701 219.79 169.827 219.79 158.904C219.79 148.493 221.113 136.632 223.758 123.32C226.489 110.008 230.457 98.5733 235.662 89.016C240.953 79.4587 247.225 74.68 254.478 74.68C258.574 74.68 261.774 76.6 264.078 80.44C266.467 84.1947 267.662 89.6133 267.662 96.696C267.662 106.851 264.846 118.627 259.214 132.024C253.667 145.421 246.073 158.648 236.43 171.704C237.027 175.203 238.094 177.72 239.63 179.256C241.166 180.792 243.257 181.56 245.902 181.56C247.353 181.56 248.974 181.133 250.766 180.28C252.643 179.427 254.35 178.317 255.886 176.952ZM251.662 87.352C249.699 87.352 247.481 90.8933 245.006 97.976C242.531 105.059 240.355 113.848 238.478 124.344C236.601 134.84 235.577 144.909 235.406 154.552C241.465 144.568 246.286 134.584 249.87 124.6C253.454 114.531 255.246 105.357 255.246 97.08C255.246 90.5947 254.051 87.352 251.662 87.352Z" fill="url(#paint1_linear_1_8)"/>
</g>
<defs>
<linearGradient id="paint0_linear_1_8" x1="755.868" y1="72.5144" x2="10.7327" y2="583.56" gradientUnits="userSpaceOnUse">
<stop offset="0.0176748" stop-color="#FF6011"/>
<stop offset="0.675994" stop-color="#E73037"/>
<stop offset="1" stop-color="#D40856"/>
</linearGradient>
<linearGradient id="paint1_linear_1_8" x1="13.2937" y1="121.934" x2="748.02" y2="121.934" gradientUnits="userSpaceOnUse">
<stop offset="0.0709268" stop-color="#B12224"/>
<stop offset="0.205474" stop-color="#EB094D"/>
<stop offset="0.259615" stop-color="#DE1D50"/>
<stop offset="0.485577" stop-color="#FF0099"/>
<stop offset="1" stop-color="#E2700C"/>
</linearGradient>
<clipPath id="clip0_1_8">
<rect width="347" height="275" fill="white"/>
</clipPath>
</defs>
</svg>
